<?xml version="1.0" encoding="utf-8"?>
<!-- Generator: Adobe Illustrator 22.1.0, SVG Export Plug-In . SVG Version: 6.00 Build 0)  -->
<svg version="1.1" id="Layer_1" xmlns="http://www.w3.org/2000/svg" xmlns:xlink="http://www.w3.org/1999/xlink" x="0px" y="0px"
	 viewBox="0 0 512 512" style="enable-background:new 0 0 512 512;" xml:space="preserve">
<g>
	<path d="M470.5,143.5c5.8,0,10.5-4.7,10.5-10.5V69.7c0-5.8-4.7-10.5-10.5-10.5h-63.3c-5.8,0-10.5,4.7-10.5,10.5v10.5H115.4V69.7
		c0-5.8-4.7-10.5-10.5-10.5H41.5c-5.8,0-10.5,4.7-10.5,10.5V133c0,5.8,4.7,10.5,10.5,10.5h10.5v225H41.5c-5.8,0-10.5,4.7-10.5,10.5
		v63.3c0,5.8,4.7,10.5,10.5,10.5h63.3c5.8,0,10.5-4.7,10.5-10.5v-10.5h281.2v10.5c0,5.8,4.7,10.5,10.5,10.5h63.3
		c5.8,0,10.5-4.7,10.5-10.5V379c0-5.8-4.7-10.5-10.5-10.5h-10.5v-225H470.5z M424.8,87.2h28.1v28.1h-28.1V87.2z M59.1,87.2h28.1
		v28.1H59.1V87.2z M87.2,424.8H59.1v-28.1h28.1V424.8z M452.9,424.8h-28.1v-28.1h28.1V424.8z M417.7,368.5h-10.5
		c-5.8,0-10.5,4.7-10.5,10.5v10.5H115.4V379c0-5.8-4.7-10.5-10.5-10.5H94.3v-225h10.5c5.8,0,10.5-4.7,10.5-10.5v-10.5h281.2V133
		c0,5.8,4.7,10.5,10.5,10.5h10.5V368.5z M386.1,199.8h-73.8V154c0-5.8-4.7-10.5-10.5-10.5H125.9c-5.8,0-10.5,4.7-10.5,10.5v147.7
		c0,5.8,4.7,10.5,10.5,10.5h73.8V358c0,5.8,4.7,10.5,10.5,10.5h175.8c5.8,0,10.5-4.7,10.5-10.5V210.3
		C396.6,204.5,391.9,199.8,386.1,199.8z M150.5,178.7h126.6v98.4H150.5V178.7z M361.5,333.3H234.9v-21.1h66.8
		c5.8,0,10.5-4.7,10.5-10.5v-66.8h49.2V333.3z"/>
</g>
</svg>
